M48
; DRILL file {KiCad 7.0.7} date Tue Sep 19 16:24:52 2023
; FORMAT={-:-/ absolute / inch / decimal}
; #@! TF.CreationDate,2023-09-19T16:24:52+02:00
; #@! TF.GenerationSoftware,Kicad,Pcbnew,7.0.7
; #@! TF.FileFunction,NonPlated,1,2,NPTH
FMAT,2
INCH
; #@! TA.AperFunction,NonPlated,NPTH,ComponentDrill
T1C0.0689
; #@! TA.AperFunction,NonPlated,NPTH,ComponentDrill
T2C0.0866
; #@! TA.AperFunction,NonPlated,NPTH,ComponentDrill
T3C0.1200
; #@! TA.AperFunction,NonPlated,NPTH,ComponentDrill
T4C0.1570
; #@! TA.AperFunction,NonPlated,NPTH,ComponentDrill
T5C0.1575
%
G90
G05
T1
X4.175Y-2.75
X4.175Y-3.875
X4.575Y-2.75
X4.575Y-3.875
X5.55Y-5.0938
X5.6437Y-6.125
X5.8Y-2.75
X5.8Y-3.875
X5.925Y-7.1562
X5.95Y-5.0938
X6.0438Y-6.125
X6.2Y-2.75
X6.2Y-3.875
X6.3Y-8.1875
X6.325Y-7.1562
X6.7Y-8.1875
X8.0187Y-2.75
X8.0187Y-3.875
X8.4187Y-2.75
X8.4187Y-3.875
T2
X3.5938Y-2.0938
X3.5938Y-8.5938
X9.8125Y-2.0938
X9.8125Y-8.5938
T3
X3.875Y-6.8812
X3.875Y-7.9125
X3.8752Y-5.85
X3.8772Y-4.7875
X3.905Y-2.475
X3.905Y-3.6
X4.845Y-2.475
X4.845Y-3.6
X5.53Y-2.475
X5.53Y-3.6
X6.47Y-2.475
X6.47Y-3.6
X7.4709Y-2.475
X7.4709Y-3.6
X7.6272Y-4.7875
X7.8123Y-5.85
X8.375Y-6.8812
X8.9709Y-2.475
X8.9709Y-3.6
X9.125Y-7.9125
T4
X3.875Y-7.4801
X3.875Y-8.5113
X3.8752Y-6.4488
X3.8772Y-5.3863
X3.905Y-3.0738
X3.905Y-4.1988
X4.845Y-3.0738
X4.845Y-4.1988
X5.53Y-3.0738
X5.53Y-4.1988
X6.47Y-3.0738
X6.47Y-4.1988
X7.4709Y-3.0738
X7.4709Y-4.1988
X7.6272Y-5.3863
X7.8123Y-6.4488
X8.375Y-7.4801
X8.9709Y-3.0738
X8.9709Y-4.1988
X9.125Y-8.5113
T5
X4.375Y-2.75
X4.375Y-3.875
X5.75Y-5.0938
X5.8438Y-6.125
X6.0Y-2.75
X6.0Y-3.875
X6.125Y-7.1562
X6.5Y-8.1875
X8.2188Y-2.75
X8.2188Y-3.875
T0
M30
